# xmcd
#
# Track frame offsets:
#	151
#	26410
#	71979
#	107284
#	137469
#	172220
#	201987
#	231416
#	262727
#	281084
#	298377
#	315440
#	330613
#
# Disc length: 4499 seconds
#
# Revision: 1
# Processed by: cddbd v1.4PL0 Copyright (c) Steve Scherf et al.
# Submitted via: EasyCDDAExtractor 4.6.0.1
#
DISCID=c611910d
DTITLE=Various Artist - BMG 157
DYEAR=2002
DGENRE=Club
TTITLE0=Groove Armada - My Friend (DJ Icey Mix)
TTITLE1=Nelly Furtado - Turn Out The Light (Dataluxe Mix)
TTITLE2=LeAnn Rimes - Can't Fight The Moonlight (Almighty Mix)
TTITLE3=Madonna - Instant Impressive (Ultimix Remix)
TTITLE4=Police - Wrapped Around Your Finger (White Label)
TTITLE5=Goldtrix feat. Andrea Brown - It's Love (Trippin') (Extended Mix)
TTITLE6=Green Velvet - La La Land (Extended Mix)
TTITLE7=Moogue - China Girl (Pulsedriver Remix)
TTITLE8=Lords Of Acid - Pussy (LP Version)
TTITLE9=Jennifer Lopez feat. Ja Rule - Ain't It Funny (Radio Version)
TTITLE10=Offspring - Defy You (Radio Version)
TTITLE11=P.O.D. - Alive (Radio Version)
TTITLE12=fuck up
EXTD=
EXTT0=
EXTT1=
EXTT2=
EXTT3=
EXTT4=
EXTT5=
EXTT6=
EXTT7=
EXTT8=
EXTT9=
EXTT10=
EXTT11=
EXTT12=
PLAYORDER=
